<svg width="50" height="50" viewBox="0 0 50 50" fill="none" xmlns="http://www.w3.org/2000/svg">
<path d="M35.5512 1.24959C36.1336 1.75533 36.4305 2.43771 37.0244 3.80246L50 33.6167C45.1262 31.8475 39.895 30.6088 34.4871 29.943L26.0387 9.97377C25.9713 9.8145 25.832 9.67477 25.6416 9.57548C25.4512 9.47619 25.22 9.42267 24.9825 9.42293C24.7451 9.42319 24.5141 9.47722 24.3242 9.57693C24.1343 9.67664 23.9956 9.81668 23.9289 9.97609L15.5828 29.9331C10.1504 30.5956 4.89521 31.8363 0 33.612L13.0391 3.79549C13.635 2.4332 13.933 1.75191 14.5154 1.24713C15.0296 0.801528 15.6984 0.455468 16.458 0.24194C17.3184 0 18.3369 0 20.3738 0H29.6869C31.7266 0 32.7463 0 33.6076 0.24235C34.3678 0.456396 35.0369 0.80318 35.551 1.24959H35.5512Z" fill="black"/>
<path d="M37.1039 35.0354C34.9648 36.3146 30.6953 37.1872 25.7773 37.1872C19.7414 37.1872 14.6822 35.8728 13.3398 34.1052C12.8598 35.1182 12.7521 36.2778 12.7521 37.0183C12.7521 37.0183 12.4359 40.6554 16.0525 43.185C16.0525 41.8715 17.575 40.8066 19.4529 40.8066C22.6717 40.8066 22.6678 42.7708 22.665 44.3644L22.6648 44.5066C22.6648 46.9253 24.7781 48.9988 27.784 49.8727C27.3213 49.2067 27.0817 48.4756 27.0832 47.7351C27.0832 45.4283 29.0193 44.5694 31.2697 43.5712C33.0602 42.7769 35.0496 41.8944 36.4205 40.1242C37.1589 39.1706 37.5444 38.1029 37.542 37.0183C37.542 36.3271 37.3885 35.6608 37.1039 35.0354Z" fill="#FF5D01"/>
</svg>
