<svg width="50" height="37" viewBox="0 0 50 37" fill="none" xmlns="http://www.w3.org/2000/svg">
<path d="M29.125 16.2646H33.5417C33.5937 16.2646 33.6452 16.2543 33.6932 16.2342C33.7412 16.2142 33.7849 16.1848 33.8216 16.1477C33.8584 16.1107 33.8875 16.0667 33.9074 16.0183C33.9273 15.9699 33.9375 15.918 33.9375 15.8656V11.9182C33.9375 11.8659 33.9273 11.814 33.9074 11.7656C33.8875 11.7172 33.8584 11.6732 33.8216 11.6361C33.7849 11.5991 33.7412 11.5697 33.6932 11.5497C33.6452 11.5296 33.5937 11.5193 33.5417 11.5193H29.125C29.0256 11.5193 28.9302 11.5591 28.8599 11.63C28.7896 11.7009 28.75 11.797 28.75 11.8972V15.8866C28.75 16.0966 28.9167 16.2646 29.125 16.2646ZM22.9792 4.8633H27.3959C27.4972 4.85792 27.5926 4.81352 27.6624 4.73928C27.7322 4.66504 27.771 4.56663 27.7709 4.46436V0.495958C27.7659 0.397362 27.7247 0.304146 27.6555 0.234336C27.5862 0.164526 27.4937 0.123081 27.3959 0.118015H22.9792C22.9282 0.115157 22.8772 0.122817 22.8293 0.140527C22.7814 0.158236 22.7375 0.185621 22.7005 0.221006C22.6634 0.25639 22.6339 0.299028 22.6138 0.346306C22.5936 0.393585 22.5833 0.444509 22.5834 0.495958V4.48536C22.5834 4.69533 22.7709 4.8633 22.9792 4.8633ZM22.9792 10.5534H27.3959C27.4937 10.5484 27.5862 10.5069 27.6555 10.4371C27.7247 10.3673 27.7659 10.2741 27.7709 10.1755V6.2071C27.7659 6.1085 27.7247 6.01529 27.6555 5.94548C27.5862 5.87567 27.4937 5.83422 27.3959 5.82916H22.9792C22.9282 5.8263 22.8772 5.83396 22.8293 5.85167C22.7814 5.86938 22.7375 5.89676 22.7005 5.93215C22.6634 5.96753 22.6339 6.01017 22.6138 6.05745C22.5936 6.10472 22.5833 6.15565 22.5834 6.2071V10.1755C22.5834 10.3855 22.7709 10.5534 22.9792 10.5534ZM16.875 10.5534H21.2917C21.3895 10.5484 21.482 10.5069 21.5513 10.4371C21.6206 10.3673 21.6617 10.2741 21.6667 10.1755V6.2071C21.6667 6.10686 21.6272 6.01073 21.5569 5.93985C21.4866 5.86897 21.3912 5.82916 21.2917 5.82916H16.875C16.7756 5.82916 16.6802 5.86897 16.6099 5.93985C16.5396 6.01073 16.5 6.10686 16.5 6.2071V10.1755C16.5 10.3855 16.6667 10.5534 16.875 10.5534ZM10.7084 10.5534H15.1042C15.2057 10.5536 15.3033 10.5144 15.377 10.4441C15.4507 10.3738 15.4947 10.2776 15.5 10.1755V6.2071C15.5001 6.15565 15.4898 6.10472 15.4696 6.05745C15.4495 6.01017 15.42 5.96753 15.3829 5.93215C15.3459 5.89676 15.3021 5.86938 15.2541 5.85167C15.2062 5.83396 15.1552 5.8263 15.1042 5.82916H10.7084C10.6069 5.82901 10.5093 5.86815 10.4356 5.93848C10.3619 6.00882 10.3179 6.10497 10.3125 6.2071V10.1755C10.3125 10.3855 10.4792 10.5534 10.7084 10.5534ZM22.9792 16.2646H27.3959C27.4972 16.2592 27.5926 16.2148 27.6624 16.1406C27.7322 16.0663 27.771 15.9679 27.7709 15.8656V11.9182C27.771 11.816 27.7322 11.7176 27.6624 11.6433C27.5926 11.5691 27.4972 11.5247 27.3959 11.5193H22.9792C22.9282 11.5164 22.8772 11.5241 22.8293 11.5418C22.7814 11.5595 22.7375 11.5869 22.7005 11.6223C22.6634 11.6577 22.6339 11.7003 22.6138 11.7476C22.5936 11.7949 22.5833 11.8458 22.5834 11.8972V15.8866C22.5834 16.0966 22.7709 16.2646 22.9792 16.2646ZM16.875 16.2646H21.2917C21.3428 16.2647 21.3933 16.2542 21.4402 16.2339C21.4871 16.2137 21.5294 16.1839 21.5645 16.1466C21.5996 16.1092 21.6268 16.065 21.6444 16.0167C21.6619 15.9684 21.6695 15.917 21.6667 15.8656V11.9182C21.6695 11.8669 21.6619 11.8155 21.6444 11.7672C21.6268 11.7188 21.5996 11.6747 21.5645 11.6373C21.5294 11.6 21.4871 11.5702 21.4402 11.5499C21.3933 11.5296 21.3428 11.5192 21.2917 11.5193H16.875C16.7756 11.5193 16.6802 11.5591 16.6099 11.63C16.5396 11.7009 16.5 11.797 16.5 11.8972V15.8866C16.5 16.0966 16.6667 16.2646 16.875 16.2646ZM10.7084 16.2646H15.1042C15.157 16.2676 15.2098 16.2594 15.2592 16.2404C15.3086 16.2215 15.3534 16.1922 15.3908 16.1545C15.4282 16.1168 15.4573 16.0716 15.4761 16.0218C15.4949 15.9721 15.5031 15.9188 15.5 15.8656V11.9182C15.5029 11.8669 15.4953 11.8155 15.4777 11.7672C15.4601 11.7188 15.433 11.6747 15.3979 11.6373C15.3627 11.6 15.3204 11.5702 15.2735 11.5499C15.2266 11.5296 15.1761 11.5192 15.125 11.5193H10.7084C10.6034 11.5193 10.5027 11.5613 10.4285 11.6361C10.3542 11.711 10.3125 11.8124 10.3125 11.9182V15.8656C10.3125 16.0756 10.4792 16.2646 10.7084 16.2646ZM4.62504 16.2646H9.04171C9.09276 16.2647 9.14329 16.2542 9.1902 16.2339C9.23711 16.2137 9.27941 16.1839 9.31452 16.1466C9.34963 16.1092 9.3768 16.065 9.39437 16.0167C9.41195 15.9684 9.41955 15.917 9.41671 15.8656V11.9182C9.41955 11.8669 9.41195 11.8155 9.39437 11.7672C9.3768 11.7188 9.34963 11.6747 9.31452 11.6373C9.27941 11.6 9.23711 11.5702 9.1902 11.5499C9.14329 11.5296 9.09276 11.5192 9.04171 11.5193H4.62504C4.57407 11.5164 4.52306 11.5241 4.47513 11.5418C4.4272 11.5595 4.38337 11.5869 4.34631 11.6223C4.30925 11.6577 4.27975 11.7003 4.25961 11.7476C4.23948 11.7949 4.22913 11.8458 4.22921 11.8972V15.8866C4.22921 16.0966 4.39588 16.2646 4.62504 16.2646ZM49.5 13.766C49.375 13.661 48.1042 12.6951 45.4375 12.6951C44.7292 12.6951 44.0209 12.7581 43.3334 12.8841C43.1486 11.7804 42.7336 10.7288 42.116 9.79866C41.4983 8.86849 40.6919 8.08092 39.75 7.48791L39.0417 7.06797L38.5625 7.76087C37.9803 8.68321 37.5576 9.69848 37.3125 10.7634C36.8125 12.8001 37.1042 14.7108 38.1459 16.3486C36.9983 16.8765 35.7603 17.1759 34.5 17.2304H1.58338C1.37644 17.2277 1.17102 17.2663 0.979035 17.3442C0.787053 17.4221 0.612336 17.5377 0.465031 17.6842C0.317726 17.8307 0.200766 18.0052 0.120944 18.1977C0.0411211 18.3901 2.60054e-05 18.5966 4.44023e-05 18.8052C-0.0325057 21.7125 0.461703 24.6014 1.45838 27.3299C2.35103 30.0158 4.11154 32.3224 6.45838 33.8809C8.91671 35.4137 12.9167 36.2746 17.4584 36.2746C19.5 36.2746 21.5417 36.1066 23.5625 35.7287C26.3594 35.2027 29.0492 34.2092 31.5209 32.7891C33.5604 31.603 35.3965 30.0928 36.9584 28.3168C39.5625 25.3352 41.125 22.0177 42.2709 19.0782H42.75C45.6042 19.0782 47.3542 17.9233 48.3334 16.9785C48.9584 16.3486 49.4792 15.5927 49.7917 14.7528L50 14.1649L49.5 13.766Z" fill="#008FE2"/>
</svg>
