<svg width="50" height="50" viewBox="0 0 50 50" fill="none" xmlns="http://www.w3.org/2000/svg">
<path d="M28.7863 13.4379L28.7361 0H21.2137L21.2639 13.4379L25.025 18.5835L28.7863 13.4379ZM21.2639 36.4673V49.9553H28.7863V36.4673L25.025 31.322L21.2639 36.4673Z" fill="white"/>
<path d="M28.7863 36.4673L36.7102 47.3575L42.7783 42.9614L34.8545 32.0713L28.7863 30.1229V36.4673ZM21.2639 13.4379L13.2898 2.54761L7.22168 6.94372L15.1455 17.834L21.2639 19.7822V13.4379Z" fill="#00F2E6"/>
<path d="M15.1455 17.834L2.30684 13.6877L0 20.7813L12.8385 24.9776L18.9066 22.9794L15.1455 17.834ZM31.0934 26.9259L34.8545 32.0714L47.6932 36.2175L50 29.1239L37.1615 24.9776L31.0934 26.9259Z" fill="#00B9F1"/>
<path d="M37.1615 24.9776L50 20.7813L47.6932 13.6877L34.8545 17.834L31.0934 22.9794L37.1615 24.9776ZM12.8385 24.9776L0 29.1239L2.30684 36.2175L15.1455 32.0714L18.9066 26.9259L12.8385 24.9776Z" fill="#D63AFF"/>
<path d="M15.1455 32.0713L7.22168 42.9614L13.2898 47.3575L21.2639 36.4673V30.1229L15.1455 32.0713ZM34.8545 17.834L42.7783 6.94372L36.7102 2.54761L28.7863 13.4379V19.7822L34.8545 17.834Z" fill="#FB015B"/>
</svg>
