<svg width="50" height="50" viewBox="0 0 50 50" fill="none" xmlns="http://www.w3.org/2000/svg">
<path d="M34.3012 5.56537C29.8071 3.07894 25.9369 0.553534 25.1463 0.0291257C25.1275 0.0199223 25.1049 0.012595 25.0799 0.00758834C25.0548 0.00258166 25.0279 0 25.0006 0C24.9734 0 24.9464 0.00258166 24.9214 0.00758834C24.8963 0.012595 24.8737 0.0199223 24.8549 0.0291257C24.0643 0.553625 20.1942 3.07894 15.6998 5.56537C-22.8758 28.5067 21.7756 43.9889 21.7756 43.9889L22.15 44.1054C22.4828 46.4947 23.3153 49.9331 23.3153 49.9331H26.6444C26.6444 49.9331 27.4764 46.5142 27.8094 44.1055L28.184 43.9695C28.2256 43.989 72.877 28.5068 34.3012 5.56537ZM24.9797 43.6391C24.9797 43.6391 22.9823 42.8428 22.4412 42.435V42.396L24.8549 17.4149C24.8549 17.3372 25.1047 17.3372 25.1047 17.4149L27.5182 42.396V42.435C26.9772 42.8428 24.9797 43.6392 24.9797 43.6392V43.6391Z" fill="#01EC64"/>
</svg>
