<svg width="39" height="42" viewBox="0 0 39 42" fill="none" xmlns="http://www.w3.org/2000/svg">
<path d="M18.0458 8.74686C16.3448 6.19582 15.9771 2.78644 15.8969 1.3854C11.576 2.31978 7.28333 3.99582 7.53125 5.23019C7.5625 5.3854 7.75833 5.57186 8.08333 5.75311L7.575 6.66248C6.95417 6.31457 6.60521 5.91352 6.51042 5.43436C6.23021 4.03748 7.8125 2.77394 11.3458 1.57082C12.9681 1.03074 14.6206 0.585885 16.2948 0.238525L16.9167 0.113525V0.749984C16.9167 0.793734 16.9437 5.21665 18.9125 8.16977L18.0458 8.74686ZM19.7823 41.7917H19.5208C10.9875 41.7917 1.49062 39.1114 0.368749 34.626C-0.315626 31.8864 1.92292 28.8594 6.84167 25.875L7.38333 26.7646C2.95729 29.451 0.824999 32.1521 1.38021 34.3739C2.35417 38.2677 11.3542 40.6948 19.2479 40.7489C20.1865 39.3458 25.2292 31.1031 22.351 20.0479L23.3583 19.7854C26.6385 32.3812 20.0062 41.4906 19.9396 41.5812L19.7823 41.7917Z" fill="#CFD8DC"/>
<path d="M4.34479 37.9437C3.78333 37.9437 3.50521 37.8822 3.45937 37.8707C3.3692 37.8492 3.28645 37.8039 3.21972 37.7396C3.15299 37.6752 3.10473 37.5941 3.07995 37.5048C3.05517 37.4155 3.05478 37.3211 3.07882 37.2316C3.10287 37.1421 3.15047 37.0606 3.21666 36.9957C3.29166 36.9207 10.7135 29.4874 11.7156 23.477L12.7427 23.6478C11.8812 28.8187 6.78958 34.7134 4.76771 36.8843C6.7875 36.7687 11.8875 35.8228 21.6781 30.3426C14.0375 29.5051 12.8292 23.3884 12.8167 23.3228L13.8406 23.1343C13.8896 23.3905 15.1177 29.3957 23.4698 29.3957H23.4781C23.5929 29.3955 23.7045 29.4332 23.7956 29.5029C23.8867 29.5726 23.9523 29.6705 23.9821 29.7813C24.0119 29.8921 24.0043 30.0096 23.9604 30.1156C23.9166 30.2217 23.8389 30.3102 23.7396 30.3676C12.0365 37.1478 6.36146 37.9426 4.34479 37.9437Z" fill="#CFD8DC"/>
<path d="M9.12917 40.4375C9.01841 40.4384 8.91028 40.4038 8.82055 40.3388C8.73082 40.2739 8.66418 40.182 8.63034 40.0765C8.59651 39.9711 8.59724 39.8576 8.63245 39.7525C8.66765 39.6475 8.73548 39.5565 8.82604 39.4927C8.86146 39.4667 10.7146 38.099 12.6865 35.0886C11.9001 34.7416 11.1362 34.346 10.399 33.9042C9.47396 33.349 8.775 32.7531 8.25313 32.1427C5.57604 32.849 3.10521 33.1281 0.935417 32.9438L1.02292 31.9063C2.97708 32.0719 5.19896 31.8406 7.60729 31.2396C5.96875 28.4396 7.47292 25.6604 7.49375 25.6229L8.40417 26.1302C8.33438 26.2573 7.08646 28.599 8.66354 30.9563C10.9563 30.2979 13.4021 29.324 15.9333 28.0584C16.5746 25.9269 17.0021 23.737 17.2094 21.5209C17.2177 21.4383 17.2455 21.359 17.2905 21.2894C17.3356 21.2198 17.3966 21.1619 17.4685 21.1205C17.5404 21.0792 17.6211 21.0556 17.7039 21.0517C17.7867 21.0477 17.8693 21.0636 17.9448 21.0979C17.9781 21.1136 21.3448 22.6511 23.7823 23.6542C23.8693 23.69 23.945 23.7486 24.0014 23.824C24.0577 23.8993 24.0926 23.9885 24.1024 24.0821C24.1121 24.1757 24.0963 24.2702 24.0566 24.3555C24.0169 24.4408 23.9549 24.5138 23.8771 24.5667C21.6147 26.1175 19.2565 27.5238 16.8167 28.7771C16.1843 30.8085 15.3251 32.7621 14.2552 34.6011C18.1115 36.0417 21.4583 36.0636 21.501 36.0636C21.6168 36.0631 21.7293 36.1013 21.821 36.1719C21.9126 36.2426 21.9781 36.3418 22.0072 36.4538C22.0362 36.5658 22.0271 36.6843 21.9813 36.7906C21.9354 36.8968 21.8555 36.9848 21.7542 37.0406C17.025 39.6677 9.49688 40.4073 9.17917 40.4375H9.12917ZM13.6969 35.5073C12.6135 37.1886 11.549 38.3959 10.7531 39.1844C12.8344 38.8781 16.4833 38.2073 19.5115 36.9563C17.5217 36.7108 15.5691 36.2243 13.6969 35.5073ZM9.38229 31.824C9.79167 32.2323 10.3021 32.6313 10.9344 33.0115C11.701 33.4719 12.4792 33.8625 13.2469 34.1938C14.1424 32.6834 14.8897 31.0898 15.4781 29.4354C13.3729 30.4375 11.3292 31.2375 9.38229 31.824ZM18.1688 22.3427C17.9747 24.0476 17.6569 25.7361 17.2177 27.3948C19.024 26.4277 20.7836 25.3759 22.4906 24.2427C21.0431 23.6252 19.6024 22.9918 18.1688 22.3427ZM12.6708 8.04169C12.5468 8.04133 12.4268 7.99705 12.3323 7.91669C10.6552 6.48127 8.68125 3.56044 8.59792 3.43648C8.53293 3.33973 8.50228 3.22398 8.51086 3.10775C8.51943 2.99151 8.56675 2.88152 8.64523 2.79535C8.72371 2.70919 8.82883 2.65184 8.94376 2.63248C9.05869 2.61312 9.17679 2.63287 9.27917 2.68856C9.29063 2.69169 10.2563 3.0896 16.7969 4.17919C16.8893 4.1941 16.9759 4.23368 17.0477 4.29376C17.1195 4.35384 17.1737 4.43218 17.2046 4.52052C17.2356 4.60886 17.2421 4.70391 17.2235 4.79564C17.2049 4.88737 17.1619 4.97238 17.099 5.04169C15.2677 7.07606 12.9542 7.9719 12.8563 8.00835C12.7968 8.03007 12.7341 8.04134 12.6708 8.04169ZM10.299 4.0271C10.9563 4.91148 11.9031 6.10627 12.7698 6.91148C13.8094 6.43104 14.7726 5.79995 15.6281 5.03856C12.9375 4.57919 11.2958 4.2521 10.299 4.0271Z" fill="#CFD8DC"/>
<path d="M16.7531 22.4167C16.6802 22.4167 16.6081 22.4013 16.5414 22.3716C16.4748 22.3419 16.4152 22.2986 16.3664 22.2444C16.3176 22.1902 16.2807 22.1263 16.2581 22.057C16.2356 21.9876 16.2278 21.9143 16.2354 21.8417C16.5396 18.9782 12.1458 17.8292 12.101 17.8188C12.0119 17.7961 11.9305 17.7502 11.8648 17.6857C11.7992 17.6213 11.7519 17.5406 11.7275 17.452C11.7032 17.3633 11.7028 17.2698 11.7263 17.1809C11.7498 17.092 11.7964 17.0109 11.8615 16.9459C12.0771 16.7303 17.2146 11.6355 23.6604 8.83754C23.7479 8.79957 23.844 8.78632 23.9385 8.79924C24.0329 8.81216 24.122 8.85075 24.196 8.91081C24.2701 8.97087 24.3262 9.05009 24.3583 9.13985C24.3904 9.2296 24.3973 9.32645 24.3781 9.41984C23.1427 15.4032 17.3885 21.9657 17.1448 22.2417C17.0953 22.2965 17.0349 22.3404 16.9674 22.3705C16.9 22.4006 16.827 22.4164 16.7531 22.4167ZM13.224 17.0886C14.4573 17.5521 16.6177 18.625 17.1646 20.5844C18.674 18.7011 21.8958 14.3625 23.099 10.2365C18.5292 12.4344 14.6813 15.749 13.224 17.0886Z" fill="#B71C1C"/>
<path d="M7.62396 26.5417L7.12917 25.625C9.09062 24.5677 11.3375 22.6219 13.1781 20.3605C11.6115 21.4334 10.7146 22.1677 10.6865 22.1917L10.0208 21.3896C10.0615 21.3563 11.8583 19.8823 14.8448 18.0355C15.6646 16.7167 16.2948 15.3605 16.6187 14.0605C16.674 13.8396 16.7219 13.6261 16.7604 13.4198C14.7552 12.7042 12.9052 12.2802 11.6344 12.098C11.5402 12.0847 11.4514 12.0459 11.3777 11.9857C11.304 11.9256 11.2482 11.8464 11.2163 11.7568C11.1844 11.6671 11.1777 11.5705 11.1968 11.4773C11.216 11.3841 11.2603 11.2979 11.325 11.2282C11.4135 11.1323 13.5292 8.86566 16.1729 7.62087C16.2733 7.57363 16.3861 7.55968 16.495 7.58103C16.6038 7.60239 16.703 7.65796 16.7781 7.73962C16.8479 7.81566 18.2781 9.42191 17.9146 12.7448C19.1177 13.2136 20.3573 13.7834 21.551 14.4615C24.425 13.1698 27.6885 12.0073 31.1646 11.3052C31.2561 11.2879 31.3506 11.295 31.4385 11.3257C31.5265 11.3564 31.6048 11.4097 31.6656 11.4802C31.7875 11.6261 31.8208 11.8271 31.7521 12.0042C30.3979 15.475 26.7667 19.1823 26.6125 19.3386C26.5605 19.3907 26.4981 19.4313 26.4294 19.4577C26.3606 19.484 26.2871 19.4956 26.2136 19.4917C26.1401 19.4878 26.0682 19.4684 26.0027 19.4348C25.9372 19.4013 25.8795 19.3543 25.8333 19.2969C24.6667 17.8302 23.1417 16.6157 21.4969 15.6271C19.463 16.5694 17.486 17.6298 15.576 18.8032C13.4719 22.0875 10.2958 25.1032 7.62396 26.5417ZM22.6375 15.1209C23.9812 15.9875 25.2323 17.0063 26.2667 18.1917C27.1292 17.2563 29.199 14.8917 30.3729 12.5438C27.6125 13.1792 25 14.099 22.6375 15.1209ZM17.749 13.7938C17.7146 13.9636 17.675 14.1375 17.6312 14.3146C17.4125 15.1886 17.0646 16.0865 16.6187 16.9823C17.8506 16.2778 19.1077 15.6184 20.3875 15.0052C19.5308 14.5536 18.6499 14.1492 17.749 13.7938ZM12.8 11.2417C13.9573 11.4688 15.3833 11.8396 16.9052 12.373C17.0635 10.4532 16.5448 9.27712 16.2312 8.75629C14.7979 9.50421 13.5427 10.5563 12.8 11.2417Z" fill="#B71C1C"/>
<path d="M12.8021 16.2709C12.8021 20.8334 9 24.4584 6.26042 27.1042C5.80208 27.5522 4.25 27.6251 4.25 27.6251C4.63542 27.2292 5.07292 26.8126 5.54167 26.3647C8.14583 23.8438 11.7604 20.3959 11.7604 16.2709C11.7604 11.3855 9.79167 9.45841 8.23958 7.91675C7.55208 7.21883 6.96875 6.55216 6.61458 5.73966L6.9375 5.60425C7.29167 5.7605 7.69792 5.93758 8.01042 6.073C8.26042 6.43758 8.59375 6.79175 8.97917 7.17717C10.5729 8.77092 12.8021 10.9584 12.8021 16.2709Z" fill="#B71C1C"/>
<path d="M38.724 17.6188C38.724 17.6188 38.0938 17.7084 37.9167 17.7292C28.7917 18.7397 19.375 21.3647 13.9896 23.5209C12.0417 24.3022 10.0208 25.2501 8.17708 26.3126C8.16667 26.323 8.15625 26.323 8.13542 26.3334C7.05208 26.9584 4.41667 28.2501 2.28125 29.3855C5.40625 26.0626 11.2604 23.5001 13.5938 22.5626C18.875 20.448 27.9479 17.8959 36.875 16.8022C35.8229 15.573 33.25 12.9688 28.1875 11.0313C25.2292 9.8855 20.7292 9.23966 16.7604 8.66675C10.4479 7.7605 6.85417 7.15633 6.51042 5.43758C6.4375 5.09383 6.48958 4.75008 6.64583 4.41675C6.98958 4.97925 7.47917 5.37508 7.80208 5.60425C7.95833 5.70842 8.07292 5.77091 8.11458 5.79175L8.125 5.80216C9.60417 6.58341 13.5938 7.15633 16.9167 7.6355C20.9375 8.21883 25.4896 8.87508 28.5625 10.0522C35.7188 12.8126 38.1875 16.7605 38.2917 16.9272C38.3854 17.0834 38.724 17.6188 38.724 17.6188Z" fill="#B71C1C"/>
</svg>
