<svg width="50" height="50" viewBox="0 0 50 50" fill="none" xmlns="http://www.w3.org/2000/svg">
<mask id="mask0_45_40" style="mask-type:luminance" maskUnits="userSpaceOnUse" x="0" y="0" width="50" height="50">
<path d="M0 0H50V49.0909H0V0Z" fill="white"/>
</mask>
<g mask="url(#mask0_45_40)">
<path fill-rule="evenodd" clip-rule="evenodd" d="M25 0C18.3333 0 14.1667 5.45455 12.5 16.3636C15 10.9091 17.9167 8.86364 21.25 10.2273C23.1519 11.0045 24.5111 13.2636 26.0157 15.7621C28.4667 19.8333 31.3037 24.5455 37.5 24.5455C44.1667 24.5455 48.3333 19.0909 50 8.18182C47.5 13.6364 44.5833 15.6818 41.25 14.3182C39.3481 13.5409 37.9889 11.2818 36.4843 8.78333C34.0333 4.71212 31.1963 0 25 0ZM12.5 24.5455C5.83333 24.5455 1.66667 30 0 40.9091C2.5 35.4545 5.41667 33.4091 8.75 34.7727C10.6519 35.5515 12.0111 37.8091 13.5157 40.3076C15.9667 44.3788 18.8037 49.0909 25 49.0909C31.6667 49.0909 35.8333 43.6364 37.5 32.7273C35 38.1818 32.0833 40.2273 28.75 38.8636C26.8481 38.0864 25.4889 35.8273 23.9843 33.3288C21.5333 29.2576 18.6963 24.5455 12.5 24.5455Z" fill="#38BDF8"/>
</g>
</svg>
