<svg width="37" height="50" viewBox="0 0 37 50" fill="none" xmlns="http://www.w3.org/2000/svg">
<mask id="mask0_156_12" style="mask-type:luminance" maskUnits="userSpaceOnUse" x="0" y="0" width="37" height="50">
<path d="M36.38 0H0V50H36.38V0Z" fill="white"/>
</mask>
<g mask="url(#mask0_156_12)">
<path d="M9.09498 50.0002C14.1154 50.0002 18.19 46.2668 18.19 41.6668V33.3335H9.09498C4.07456 33.3335 0 37.0668 0 41.6668C0 46.2668 4.07456 50.0002 9.09498 50.0002Z" fill="#0ACF83"/>
<path d="M0 24.9998C0 20.3998 4.07456 16.6665 9.09498 16.6665H18.19V33.3332H9.09498C4.07456 33.3332 0 29.5998 0 24.9998Z" fill="#A259FF"/>
<path d="M0 8.33331C0 3.73333 4.07456 0 9.09498 0H18.19V16.6667H9.09498C4.07456 16.6667 0 12.9333 0 8.33331Z" fill="#F24E1E"/>
<path d="M18.1901 0H27.2851C32.3056 0 36.3801 3.73333 36.3801 8.33331C36.3801 12.9333 32.3056 16.6667 27.2851 16.6667H18.1901V0Z" fill="#FF7262"/>
<path d="M36.3801 24.9998C36.3801 29.5998 32.3056 33.3332 27.2851 33.3332C22.2647 33.3332 18.1901 29.5998 18.1901 24.9998C18.1901 20.3998 22.2647 16.6665 27.2851 16.6665C32.3056 16.6665 36.3801 20.3998 36.3801 24.9998Z" fill="#1ABCFE"/>
</g>
</svg>
