<svg width="50" height="50" viewBox="0 0 50 50" fill="none" xmlns="http://www.w3.org/2000/svg">
<path d="M49.0566 22.7739L27.2265 0.94182C26.6226 0.338441 25.8039 -0.000488281 24.9502 -0.000488281C24.0965 -0.000488281 23.2777 0.338441 22.6738 0.94182L18.1406 5.47307L23.8906 11.225C24.5687 10.9937 25.2982 10.9575 25.9959 11.1208C26.6936 11.2841 27.3313 11.6402 27.8363 12.1485C28.3413 12.6568 28.6933 13.2968 28.8521 13.9954C29.0109 14.6941 28.9701 15.4234 28.7344 16.1L34.2754 21.643C35.1036 21.3583 36.0044 21.366 36.8276 21.6649C37.6509 21.9637 38.3468 22.5357 38.7995 23.2855C39.2521 24.0353 39.4341 24.9175 39.3152 25.7852C39.1962 26.6529 38.7835 27.4536 38.1457 28.0539C37.508 28.6542 36.6838 29.0178 35.8105 29.0841C34.9372 29.1504 34.0676 28.9154 33.3465 28.4182C32.6255 27.9211 32.0966 27.1919 31.848 26.3521C31.5994 25.5123 31.6462 24.6127 31.9805 23.8031L26.8125 18.6332V32.2348C27.598 32.6232 28.2267 33.2691 28.5937 34.0649C28.9607 34.8606 29.0439 35.7581 28.8294 36.6077C28.6149 37.4574 28.1157 38.2079 27.415 38.7341C26.7143 39.2603 25.8544 39.5304 24.9786 39.4995C24.1029 39.4685 23.2642 39.1383 22.6023 38.564C21.9405 37.9896 21.4955 37.2058 21.3415 36.3431C21.1876 35.4805 21.3339 34.5911 21.7562 33.8232C22.1784 33.0554 22.8511 32.4555 23.6621 32.1235V18.3989C23.1942 18.2072 22.7689 17.9247 22.4107 17.5678C22.0525 17.2109 21.7686 16.7867 21.5752 16.3195C21.3818 15.8523 21.2828 15.3514 21.284 14.8458C21.2852 14.3401 21.3865 13.8398 21.582 13.3735L15.9101 7.70354L0.943346 22.6723C0.33937 23.2763 6.10352e-05 24.0955 6.10352e-05 24.9496C6.10352e-05 25.8038 0.33937 26.623 0.943346 27.227L22.7734 49.0571C23.3774 49.661 24.1966 50.0003 25.0508 50.0003C25.9049 50.0003 26.7241 49.661 27.3281 49.0571L49.0566 27.3285C49.6607 26.7242 50.0001 25.9047 50.0001 25.0502C50.0001 24.1957 49.6607 23.3762 49.0566 22.7719" fill="#DE4C36"/>
</svg>
