<svg width="50" height="50" viewBox="0 0 50 50" fill="none" xmlns="http://www.w3.org/2000/svg">
<path d="M25.0002 0C11.1947 0 0 11.4614 0 25.6002C0 36.911 7.16328 46.5072 17.0967 49.8922C18.3461 50.1292 18.8049 49.3368 18.8049 48.6606C18.8049 48.0502 18.7814 46.0336 18.7709 43.8946C11.8158 45.443 10.3482 40.874 10.3482 40.874C9.21094 37.915 7.57227 37.128 7.57227 37.128C5.3041 35.5392 7.74336 35.572 7.74336 35.572C10.2537 35.7524 11.5756 38.21 11.5756 38.21C13.8055 42.1236 17.4242 40.9922 18.8508 40.338C19.0752 38.6836 19.723 37.554 20.4381 36.9148C14.8852 36.2676 9.04785 34.0724 9.04785 24.2632C9.04785 21.4682 10.0244 19.1844 11.6236 17.3916C11.3641 16.7468 10.5084 14.1432 11.8658 10.6168C11.8658 10.6168 13.9652 9.9288 18.7428 13.241C20.7369 12.6738 22.8756 12.3894 25.0002 12.3796C27.1248 12.3894 29.2652 12.6736 31.2631 13.241C36.0348 9.929 38.1312 10.617 38.1312 10.617C39.492 14.143 38.6359 16.747 38.3764 17.3916C39.9793 19.1844 40.9492 21.4682 40.9492 24.2632C40.9492 34.0958 35.1008 36.2608 29.5338 36.8946C30.4305 37.689 31.2295 39.247 31.2295 41.6354C31.2295 45.0606 31.2006 47.8174 31.2006 48.6606C31.2006 49.342 31.6506 50.1402 32.9178 49.8886C42.8457 46.5 50 36.9074 50 25.6004C50 11.4614 38.8068 0 25.0002 0ZM9.36348 36.468C9.3084 36.5952 9.11289 36.6334 8.93496 36.546C8.75352 36.4626 8.65176 36.2892 8.71035 36.1616C8.76426 36.0306 8.96016 35.994 9.14102 36.0818C9.32266 36.1654 9.42617 36.3404 9.36348 36.468ZM10.5932 37.5916C10.474 37.7048 10.2408 37.6522 10.0826 37.4734C9.91914 37.295 9.88848 37.0562 10.0094 36.9414C10.1324 36.8282 10.3584 36.8812 10.5223 37.0596C10.6859 37.2402 10.7176 37.4772 10.5932 37.5916ZM11.4369 39.0292C11.2836 39.1382 11.0332 39.036 10.8783 38.8084C10.7252 38.5808 10.7252 38.3078 10.8816 38.1984C11.0369 38.089 11.2836 38.1874 11.4404 38.4134C11.5932 38.6448 11.5932 38.9178 11.4367 39.0294L11.4369 39.0292ZM12.8635 40.6942C12.7266 40.849 12.4346 40.8074 12.2209 40.5962C12.0023 40.3898 11.9416 40.097 12.0791 39.9422C12.2178 39.787 12.5113 39.8306 12.7266 40.0402C12.9434 40.2462 13.0098 40.5412 12.8635 40.6942ZM14.7076 41.2562C14.6471 41.4568 14.3658 41.548 14.0828 41.4628C13.8 41.375 13.615 41.1402 13.6721 40.9376C13.7309 40.7356 14.0133 40.6408 14.2984 40.732C14.5809 40.8192 14.7664 41.0522 14.7076 41.2562ZM16.8061 41.4948C16.8131 41.7058 16.573 41.8808 16.2758 41.8848C15.977 41.8916 15.735 41.7208 15.7316 41.5128C15.7316 41.2998 15.9664 41.1264 16.2654 41.1212C16.5627 41.1152 16.8061 41.2848 16.8061 41.4948ZM18.8676 41.4138C18.9031 41.6198 18.6967 41.8314 18.4014 41.8878C18.1113 41.942 17.8426 41.8148 17.8057 41.6106C17.7697 41.3994 17.9801 41.1878 18.2697 41.1332C18.5654 41.0806 18.8299 41.2044 18.8676 41.4138Z" fill="white"/>
</svg>
