<svg width="40" height="46" viewBox="0 0 40 46" fill="none" xmlns="http://www.w3.org/2000/svg">
<path d="M20.0073 45.3114C19.4094 45.3114 18.8167 45.1552 18.2927 44.8531L12.8344 41.6208C12.0188 41.1645 12.4167 41.0031 12.6854 40.9104C13.7729 40.5302 13.9927 40.4437 15.1531 39.7843C15.275 39.7145 15.4344 39.7395 15.5594 39.8135L19.7531 42.302C19.9042 42.3843 20.1198 42.3843 20.2594 42.302L36.6104 32.8635C36.7615 32.7771 36.8604 32.602 36.8604 32.4218V13.5541C36.8604 13.3656 36.7625 13.1979 36.6073 13.1041L20.2635 3.67288C20.1125 3.5833 19.9115 3.5833 19.7604 3.67288L3.41875 13.1031C3.26042 13.1927 3.15938 13.3687 3.15938 13.5489V32.4177C3.15938 32.5979 3.25729 32.7698 3.41354 32.8552L7.89167 35.4416C10.3229 36.6573 11.8083 35.225 11.8083 33.7843V15.1625C11.8083 14.8968 12.0167 14.6916 12.2833 14.6916H14.3542C14.6125 14.6916 14.825 14.8958 14.825 15.1625V33.7937C14.825 37.0354 13.0573 38.8979 9.98334 38.8979C9.0375 38.8979 8.29271 38.8979 6.21354 37.875L1.92396 35.4031C0.863544 34.7885 0.208336 33.6416 0.208336 32.4187V13.55C0.208336 12.3218 0.863544 11.176 1.92292 10.5698L18.2917 1.12705C19.3271 0.541634 20.7021 0.541634 21.7302 1.12705L38.0781 10.5739C39.1323 11.1833 39.7917 12.326 39.7917 13.5541V32.4229C39.7917 33.6468 39.1323 34.7885 38.0771 35.4031L21.7292 44.8448C21.2052 45.1479 20.6115 45.3031 20.0063 45.3031" fill="#21A366"/>
<path d="M25.0583 32.3093C17.9042 32.3093 16.4042 29.0249 16.4042 26.2707C16.4042 26.0093 16.6156 25.7999 16.8781 25.7999H18.9906C19.224 25.7999 19.4208 25.9697 19.4573 26.1999C19.776 28.352 20.726 29.4374 25.0521 29.4374C28.4979 29.4374 29.9635 28.6593 29.9635 26.8311C29.9635 25.7791 29.5458 24.9978 24.1927 24.4738C19.7146 24.0322 16.9479 23.0457 16.9479 19.4645C16.9479 16.1655 19.7312 14.2009 24.3927 14.2009C29.6281 14.2009 32.2229 16.0186 32.55 19.9228C32.5625 20.0582 32.5135 20.1884 32.4229 20.2874C32.3333 20.3811 32.2062 20.4384 32.075 20.4384H29.951C29.7302 20.4384 29.5375 20.2832 29.4927 20.0697C28.9812 17.8061 27.7448 17.0822 24.3844 17.0822C20.6229 17.0822 20.1854 18.3916 20.1854 19.3738C20.1854 20.5645 20.701 20.9124 25.776 21.5843C30.8021 22.2509 33.1885 23.1926 33.1885 26.7249C33.1885 30.2853 30.2167 32.328 25.0354 32.328" fill="#21A366"/>
</svg>
