<svg width="50" height="50" viewBox="0 0 50 50" fill="none" xmlns="http://www.w3.org/2000/svg">
<path d="M25.0879 19.6289C22.4429 19.6289 20.2988 22.0118 20.2988 24.9512C20.2988 27.8906 22.4429 30.2734 25.0879 30.2734C27.7328 30.2734 29.877 27.8906 29.877 24.9512C29.877 22.0118 27.7328 19.6289 25.0879 19.6289Z" fill="#087EA4"/>
<path d="M49.9965 24.9995C49.9965 20.8211 46.5147 17.1564 40.9711 14.7446C41.0452 14.2015 41.1122 13.6643 41.1599 13.1368C41.7066 7.13296 40.405 2.79967 37.4965 0.933022C34.2423 -1.15519 29.6458 0.360478 24.9982 4.49377C20.3506 0.360478 15.7542 -1.15519 12.5 0.933022C9.59151 2.79967 8.28983 7.13296 8.8366 13.1368C8.88422 13.6643 8.94948 14.2035 9.02533 14.7486C8.56321 14.9446 8.10992 15.1525 7.67426 15.3701C2.72506 17.8427 0 21.2662 0 24.9995C0 29.1778 3.48173 32.8425 9.02533 35.2543C8.94948 35.7974 8.88422 36.3346 8.8366 36.8621C8.28983 42.8659 9.59151 47.1992 12.5 49.0659C13.5 49.6961 14.6331 50.0182 15.7824 49.9992C18.5375 49.9992 21.7546 48.3875 24.9982 45.5051C28.2401 48.3875 31.459 49.9992 34.2176 49.9992C35.3669 50.018 36.4999 49.6958 37.5 49.0659C40.4085 47.1992 41.7102 42.8659 41.1634 36.8621C41.1158 36.3346 41.0488 35.7974 40.9747 35.2543C46.5183 32.8464 50 29.1759 50 24.9995M34.1964 2.64673C34.9354 2.62691 35.6659 2.82586 36.313 3.2232C38.3325 4.51926 39.2391 8.03491 38.7982 12.8682C38.7682 13.1976 38.7329 13.5309 38.6906 13.8662C36.3855 13.0945 34.0251 12.5442 31.6354 12.2211C30.1867 10.0805 28.5758 8.08168 26.8202 6.24669C29.577 3.87809 32.1645 2.64673 34.1946 2.64673M33.2475 30.2935C32.3554 32.0147 31.3841 33.6836 30.3372 35.2935C28.5628 35.4961 26.7802 35.5969 24.9965 35.5954C23.2133 35.5968 21.4313 35.496 19.6575 35.2935C18.6134 33.6835 17.645 32.0147 16.756 30.2935C15.864 28.5771 15.0533 26.81 14.3273 24.9995C15.0533 23.1889 15.864 21.4218 16.756 19.7054C17.6436 17.9911 18.6091 16.3282 19.6487 14.7231C21.4257 14.5154 23.2114 14.412 24.9982 14.4133C26.7814 14.4121 28.5634 14.5129 30.3372 14.7152C31.3804 16.3229 32.3494 17.9884 33.2404 19.7054C34.1318 21.4222 34.9424 23.1893 35.6692 24.9995C34.9424 26.8096 34.1318 28.5767 33.2404 30.2935M36.8827 28.3328C37.4425 30.0296 37.902 31.7653 38.2584 33.5288C36.7117 34.0648 35.135 34.4873 33.5385 34.7935C34.1453 33.7765 34.7332 32.7183 35.3023 31.619C35.865 30.5327 36.3923 29.4367 36.8897 28.3406M21.6488 38.1229C22.7459 38.1974 23.8659 38.2405 25 38.2405C26.1341 38.2405 27.2612 38.1974 28.36 38.1229C27.3182 39.5101 26.1958 40.8201 25 42.0444C23.8068 40.8203 22.6873 39.5103 21.6488 38.1229ZM16.4597 34.7896C14.8627 34.4847 13.2854 34.0636 11.738 33.5288C12.093 31.7681 12.5508 30.0351 13.1085 28.3406C13.5988 29.4367 14.1245 30.5327 14.6959 31.619C15.2674 32.7053 15.8583 33.7758 16.4597 34.7935M13.1085 21.6563C12.5528 19.9682 12.0962 18.2417 11.7416 16.4878C13.2851 15.9524 14.8581 15.5286 16.4509 15.2192C15.8477 16.2329 15.2568 17.2838 14.6871 18.3799C14.1174 19.476 13.5971 20.5583 13.0997 21.6563M28.3494 11.8741C27.2524 11.7996 26.1324 11.7564 24.9894 11.7564C23.8559 11.7564 22.7388 11.7957 21.6382 11.8741C22.6768 10.4867 23.7962 9.17667 24.9894 7.95256C26.1856 9.17635 27.3081 10.4864 28.3494 11.8741ZM35.2988 18.3799C34.7273 17.2793 34.1364 16.2205 33.5262 15.2035C35.1269 15.5097 36.7078 15.9328 38.2584 16.4701C37.9026 18.2305 37.4449 19.9635 36.888 21.6583C36.3976 20.5622 35.8703 19.4662 35.3005 18.3819M11.2054 12.8702C10.7591 8.03883 11.671 4.52122 13.6888 3.22516C14.3361 2.82844 15.0664 2.62953 15.8053 2.64869C17.8355 2.64869 20.423 3.88005 23.1798 6.24866C21.423 8.08495 19.8109 10.085 18.3611 12.227C15.972 12.5516 13.6119 13.0999 11.3059 13.8662C11.2653 13.5309 11.2283 13.1996 11.2001 12.8702M8.6514 17.7838C8.92303 17.6531 9.19994 17.5224 9.48215 17.3917C10.037 19.9937 10.7893 22.5388 11.731 24.9995C10.7875 27.465 10.0346 30.0153 9.48039 32.6229C4.98624 30.5739 2.38112 27.7347 2.38112 24.9995C2.38112 22.4073 4.67405 19.7779 8.6514 17.7838ZM13.6888 46.7737C11.671 45.4777 10.7591 41.9601 11.2054 37.1287C11.2336 36.7993 11.2706 36.468 11.3112 36.1307C13.6163 36.9022 15.9767 37.4526 18.3664 37.7758C19.8155 39.9173 21.4264 41.9173 23.1815 43.7542C19.3382 47.0541 15.8265 48.1424 13.6941 46.7737M38.7964 37.1287C39.2373 41.962 38.3307 45.4777 36.3112 46.7737C34.1805 48.1463 30.6671 47.0541 26.8255 43.7542C28.5801 41.9173 30.1904 39.9172 31.6389 37.7758C34.0286 37.4528 36.389 36.9024 38.6941 36.1307C38.7364 36.468 38.7717 36.7993 38.8017 37.1287M40.5267 32.619C39.9709 30.0129 39.2174 27.464 38.2743 24.9995C39.217 22.5336 39.9699 19.9833 40.5249 17.376C45.0102 19.425 47.6224 22.2642 47.6224 24.9995C47.6224 27.7347 45.0173 30.5739 40.5231 32.6229" fill="#087EA4"/>
</svg>
