<svg width="51" height="50" viewBox="0 0 51 50" fill="none" xmlns="http://www.w3.org/2000/svg">
<path d="M44.0664 28.7761C42.3086 28.7761 40.7461 29.2969 39.4766 30.0782C38.9883 28.9063 38.5977 27.8646 38.5 26.9532C38.4023 26.0417 38.3047 25.5209 38.4023 24.349C38.5 23.1771 38.9883 21.6146 38.9883 21.4844C38.9883 21.4844 38.8906 20.8334 37.9141 20.8334C36.8398 20.8334 35.9609 21.0938 35.8633 21.4844L35.4727 23.4375C35.2773 24.6094 33.5195 29.0365 32.4453 31.25C32.0547 30.3386 31.7617 29.5573 31.7617 29.0365C31.6641 27.9948 31.5664 27.474 31.6641 26.3021C31.7617 25.1302 32.25 23.6979 32.25 23.5677C32.25 23.4375 32.1523 22.7865 31.1758 22.7865C30.1016 22.7865 29.2227 23.0469 29.125 23.4375L28.7344 25.3907L25.4141 35.2865L24.6328 37.6302C24.4375 38.1511 24.6328 37.6302 24.6328 37.7604L24.3398 38.4115L23.9492 39.0625C23.9492 39.0625 23.8516 38.1511 24.0469 36.9792C24.3398 34.5052 25.2187 30.599 25.2187 30.3386C25.2187 30.3386 25.4141 29.6875 24.6328 29.2969C23.9492 28.9063 23.7539 29.5573 23.6562 29.5573L23.5586 29.6875C23.5586 29.6875 24.3398 25.2604 21.9961 25.2604C20.6289 25.2604 18.5781 27.474 17.6016 29.2969L14.2812 31.7709L12.6211 32.9427L12.5234 32.8125C9.69141 28.7761 4.51562 26.0417 4.80859 20.7032C4.80859 18.75 5.39453 13.6719 14.6719 7.4219C22.3867 2.34378 28.4414 3.77607 29.5156 6.90107C31.0781 11.3282 26.293 19.5313 18.2852 20.7032C15.2578 21.0938 13.6953 19.5313 13.3047 19.0104C12.9141 18.3594 12.8164 18.3594 12.6211 18.4896C12.4258 18.6198 12.5234 19.1407 12.6211 19.5313C12.9141 20.3125 13.8906 21.7448 15.5508 22.5261C17.0156 23.1771 20.5312 23.5677 24.8281 21.3542C29.6133 18.8802 33.4219 11.9792 32.3477 6.11982C31.1758 0.260445 23.8516 -1.69268 17.0156 1.56253C12.8164 3.51565 8.42187 6.64065 5.19922 10.6771C1.39062 15.3646 0.804687 19.5313 1 21.224C1.97656 27.3438 8.22656 31.3802 10.7656 34.2448L10.4727 34.5052C9.20312 35.4167 4.32031 38.8021 3.14844 42.3177C1.78125 46.3542 3.34375 49.2188 4.41797 49.6094C7.64062 50.9115 11.0586 48.6979 12.8164 45.1823C14.5742 41.5365 14.3789 36.849 13.5977 34.7657L13.5 34.6354L14.5742 33.8542L16.332 32.5521C16.0391 33.724 15.8437 35.0261 15.7461 36.9792C15.5508 39.1927 16.332 42.1875 17.2109 43.3594C17.6016 43.8802 18.0898 43.8802 18.3828 43.8802C19.457 43.8802 19.9453 42.7084 20.5312 41.2761L21.8008 37.6302C21.8008 37.6302 21.0195 42.9688 23.0703 42.9688C23.7539 42.9688 24.5352 41.7969 24.8281 41.1459L24.9258 41.0157L25.0234 40.7552L26.9766 35.9375L29.418 28.5157L29.9063 31.1198C30.1016 32.1615 30.5898 33.2032 30.8828 34.2448L30.4922 35.1563L29.7109 36.4584C28.7344 38.0209 27.4648 39.8438 27.3672 40.3646C27.1719 41.0157 27.1719 41.4063 27.5625 41.7969C27.8555 42.0573 28.3438 42.0573 28.832 42.0573L30.5898 41.5365L32.25 40.3646C33.2266 39.4532 33.8125 38.0209 33.7148 36.1979C33.7148 35.2865 33.4219 34.2448 33.1289 33.3334L33.4219 32.8125C34.9844 29.8177 36.1563 26.4323 36.1563 26.4323L36.6445 29.1667L37.5234 31.7709C36.3579 33.0064 35.45 34.6205 34.8867 36.4584C34.3008 38.6719 34.6914 39.5834 35.5703 39.8438C35.9609 39.974 36.5469 39.7136 36.9375 39.4532C37.4258 39.3229 38.0117 38.9323 38.5977 38.4115C39.5742 37.3698 40.5508 36.0677 40.4531 34.2448C40.4531 33.4636 40.2578 32.5521 40.0625 31.7709C41.2344 31.1198 42.8945 30.7292 44.8477 31.1198C49.2422 31.7709 50.1211 35.4167 49.9258 36.849C49.7305 38.4115 48.8516 39.1927 48.5586 39.4532L48.168 39.974C48.2656 40.2344 48.3633 40.2344 48.6563 40.2344C48.9492 40.1042 50.9023 38.9323 51 36.1979C51.0977 32.5521 48.5586 28.6459 44.0664 28.7761ZM10.4727 43.75C9.10547 45.8334 7.05469 46.7448 6.17578 45.9636C5.29687 45.3125 5.58984 42.1875 7.44531 39.974C8.51953 38.6719 9.88672 37.3698 10.7656 36.5886L11.6445 35.9375L11.7422 35.8073L12.0352 35.6771C12.6211 38.8021 12.0352 41.5365 10.4727 43.75ZM21.0195 34.2448C20.5312 35.9375 19.457 40.1042 18.8711 39.8438C18.2852 39.7136 17.9922 36.4584 18.6758 33.3334C19.0664 31.7709 19.9453 29.9479 20.4336 29.1667C21.2148 27.9948 22.0937 27.6042 22.2891 28.125C22.582 28.7761 21.3125 33.2032 21.0195 34.2448ZM29.7109 39.8438L29.2227 39.974V39.7136L30.7852 37.5L31.6641 36.0677V36.1979C31.6641 38.0209 30.2969 39.3229 29.7109 39.8438ZM36.3516 37.7604C36.1563 37.6302 36.2539 37.1094 36.7422 35.6771C36.9375 35.0261 37.4258 33.9844 38.207 33.0729L38.4023 34.2448C38.4023 36.5886 37.1328 37.3698 36.3516 37.7604Z" fill="#CF649A"/>
</svg>
