<svg width="50" height="50" viewBox="0 0 50 50" fill="none" xmlns="http://www.w3.org/2000/svg">
<mask id="mask0_45_71" style="mask-type:alpha" maskUnits="userSpaceOnUse" x="0" y="0" width="51" height="50">
<path fill-rule="evenodd" clip-rule="evenodd" d="M35.4561 49.6585C35.8539 49.8136 36.2793 49.8853 36.706 49.8689C37.1326 49.8526 37.5514 49.7486 37.9361 49.5635L48.2306 44.61C48.7608 44.3547 49.2082 43.955 49.5212 43.4567C49.8342 42.9584 50.0002 42.3819 50.0001 41.7935V8.20648C50.0001 7.61807 49.834 7.04161 49.5209 6.54344C49.2077 6.04526 48.7603 5.64561 48.2301 5.39048L37.9371 0.436979C37.3554 0.157085 36.701 0.0649573 36.0647 0.17335C35.4283 0.281742 34.8413 0.585293 34.3851 1.04198L14.6776 19.02L6.09359 12.505C5.70639 12.2109 5.22847 12.0617 4.74275 12.0833C4.25704 12.1049 3.79421 12.2958 3.43459 12.623L0.681586 15.1275C0.467099 15.3226 0.295703 15.5604 0.17836 15.8256C0.0610175 16.0908 0.000310752 16.3775 0.000122509 16.6675C-6.57334e-05 16.9575 0.0602687 17.2444 0.177267 17.5097C0.294266 17.775 0.465352 18.013 0.679586 18.2085L8.12359 25L0.680086 31.7915C0.465852 31.9869 0.294766 32.2249 0.177767 32.4903C0.0607687 32.7556 0.000434267 33.0424 0.000622509 33.3324C0.000810752 33.6224 0.0615175 33.9092 0.17886 34.1744C0.296203 34.4395 0.467599 34.6773 0.682086 34.8725L3.43509 37.3775C3.79471 37.7047 4.25754 37.8956 4.74325 37.9172C5.22897 37.9387 5.70689 37.7895 6.09409 37.4955L14.6781 30.9795L34.3851 48.9585C34.6898 49.2636 35.0542 49.502 35.4561 49.6585ZM37.5076 13.65L22.5551 25L37.5081 36.3505L37.5076 13.65Z" fill="white"/>
</mask>
<g mask="url(#mask0_45_71)">
<path d="M48.2306 5.39802L37.9286 0.438024C37.3467 0.157894 36.6923 0.0654974 36.0557 0.173616C35.419 0.281734 34.8318 0.585022 34.3751 1.04152L0.649555 31.7915C0.435253 31.9869 0.264105 32.2249 0.147062 32.4903C0.0300193 32.7556 -0.0303392 33.0425 -0.0301509 33.3325C-0.0299627 33.6225 0.0307682 33.9093 0.148155 34.1744C0.265542 34.4396 0.437 34.6774 0.651555 34.8725L3.40655 37.377C3.76648 37.704 4.22944 37.8948 4.71525 37.9164C5.20105 37.9379 5.67909 37.7889 6.06656 37.495L46.6806 6.68502C48.0431 5.65152 50.0001 6.62302 50.0001 8.33352V8.21352C49.9999 7.62534 49.8338 7.04913 49.5208 6.55115C49.2077 6.05318 48.7605 5.65366 48.2306 5.39852V5.39802Z" fill="#0065A9"/>
<g filter="url(#filter0_d_45_71)">
<path d="M48.2306 44.6019L37.9286 49.5619C37.3468 49.8421 36.6923 49.9346 36.0556 49.8265C35.419 49.7183 34.8317 49.415 34.3751 48.9584L0.649555 18.2084C0.435253 18.013 0.264105 17.775 0.147062 17.5097C0.0300193 17.2444 -0.0303392 16.9575 -0.0301509 16.6675C-0.0299627 16.3775 0.0307682 16.0907 0.148155 15.8255C0.265542 15.5603 0.437 15.3226 0.651555 15.1274L3.40655 12.6229C3.76648 12.2959 4.22944 12.1051 4.71525 12.0836C5.20105 12.062 5.67909 12.2111 6.06656 12.5049L46.6806 43.3149C48.0431 44.3484 50.0001 43.3769 50.0001 41.6664V41.7864C49.9999 42.3746 49.8338 42.9508 49.5208 43.4488C49.2077 43.9468 48.7605 44.3468 48.2306 44.6019Z" fill="#007ACC"/>
</g>
<g filter="url(#filter1_d_45_71)">
<path d="M37.9291 49.563C37.3471 49.8429 36.6924 49.9351 36.0557 49.8267C35.4191 49.7183 34.8318 49.4147 34.3751 48.958C35.5281 50.1115 37.5001 49.295 37.5001 47.664V2.33601C37.5001 0.705014 35.5281 -0.111486 34.3751 1.04151C34.8318 0.584787 35.4191 0.28124 36.0557 0.172855C36.6924 0.0644705 37.3471 0.156604 37.9291 0.436514L48.2291 5.39051C48.7595 5.64551 49.2072 6.04509 49.5205 6.54328C49.8338 7.04146 50 7.618 50.0001 8.20651V41.7935C50.0002 42.3821 49.834 42.9587 49.5208 43.4569C49.2076 43.9552 48.76 44.3549 48.2296 44.61L37.9291 49.563Z" fill="#1F9CF0"/>
</g>
<path style="mix-blend-mode:overlay" opacity="0.25" fill-rule="evenodd" clip-rule="evenodd" d="M35.4256 49.6585C35.8233 49.8136 36.2488 49.8852 36.6754 49.8689C37.1021 49.8526 37.5208 49.7486 37.9056 49.5635L48.2001 44.61C48.7304 44.3548 49.1778 43.9551 49.491 43.4568C49.8041 42.9585 49.9702 42.382 49.9701 41.7935V8.20648C49.9701 7.61807 49.804 7.04161 49.4908 6.54344C49.1777 6.04526 48.7303 5.64561 48.2001 5.39048L37.9061 0.436979C37.3244 0.157085 36.67 0.0649573 36.0336 0.17335C35.3973 0.281742 34.8103 0.585293 34.3541 1.04198L14.6471 19.02L6.06307 12.505C5.67592 12.2111 5.19809 12.062 4.71249 12.0835C4.22689 12.1051 3.76416 12.2959 3.40457 12.623L0.651068 15.1275C0.436581 15.3226 0.265186 15.5604 0.147843 15.8256C0.0305 16.0908 -0.0302068 16.3775 -0.0303951 16.6675C-0.0305833 16.9575 0.0297511 17.2444 0.14675 17.5097C0.263748 17.775 0.434835 18.013 0.649068 18.2085L8.09307 25L0.649068 31.7915C0.434835 31.9869 0.263748 32.2249 0.14675 32.4903C0.0297511 32.7556 -0.0305833 33.0424 -0.0303951 33.3324C-0.0302068 33.6224 0.0305 33.9092 0.147843 34.1744C0.265186 34.4395 0.436581 34.6773 0.651068 34.8725L3.40457 37.377C3.76416 37.704 4.22689 37.8949 4.71249 37.9165C5.19809 37.938 5.67592 37.7889 6.06307 37.495L14.6471 30.98L34.3541 48.959C34.6588 49.2641 35.0237 49.502 35.4256 49.6585ZM37.4771 13.65L22.5241 25L37.4771 36.3505V13.65Z" fill="url(#paint0_linear_45_71)"/>
</g>
<defs>
<filter id="filter0_d_45_71" x="-8.36415" y="3.74754" width="66.6982" height="54.4568" filterUnits="userSpaceOnUse" color-interpolation-filters="sRGB">
<feFlood flood-opacity="0" result="BackgroundImageFix"/>
<feColorMatrix in="SourceAlpha" type="matrix" values="0 0 0 0 0 0 0 0 0 0 0 0 0 0 0 0 0 0 127 0" result="hardAlpha"/>
<feOffset/>
<feGaussianBlur stdDeviation="4.167"/>
<feColorMatrix type="matrix" values="0 0 0 0 0 0 0 0 0 0 0 0 0 0 0 0 0 0 0.25 0"/>
<feBlend mode="overlay" in2="BackgroundImageFix" result="effect1_dropShadow_45_71"/>
<feBlend mode="normal" in="SourceGraphic" in2="effect1_dropShadow_45_71" result="shape"/>
</filter>
<filter id="filter1_d_45_71" x="26.0411" y="-8.20534" width="32.293" height="66.4102" filterUnits="userSpaceOnUse" color-interpolation-filters="sRGB">
<feFlood flood-opacity="0" result="BackgroundImageFix"/>
<feColorMatrix in="SourceAlpha" type="matrix" values="0 0 0 0 0 0 0 0 0 0 0 0 0 0 0 0 0 0 127 0" result="hardAlpha"/>
<feOffset/>
<feGaussianBlur stdDeviation="4.167"/>
<feColorMatrix type="matrix" values="0 0 0 0 0 0 0 0 0 0 0 0 0 0 0 0 0 0 0.25 0"/>
<feBlend mode="overlay" in2="BackgroundImageFix" result="effect1_dropShadow_45_71"/>
<feBlend mode="normal" in="SourceGraphic" in2="effect1_dropShadow_45_71" result="shape"/>
</filter>
<linearGradient id="paint0_linear_45_71" x1="24.9696" y1="0.128979" x2="24.9696" y2="49.871" gradientUnits="userSpaceOnUse">
<stop stop-color="white"/>
<stop offset="1" stop-color="white" stop-opacity="0"/>
</linearGradient>
</defs>
</svg>
