<svg width="111" height="217" viewBox="0 0 111 217" fill="none" xmlns="http://www.w3.org/2000/svg">
<g clip-path="url(#clip0_107_101)">
<path d="M35.7559 121.856C38.7144 122.255 41.2128 122.455 43.2512 122.458C44.369 122.459 45.3883 122.428 46.309 122.363C47.2296 122.298 48.3804 122.201 49.7615 122.072C50.9452 121.942 52.4249 121.812 54.2005 121.683C55.976 121.554 58.0476 121.326 60.4152 121C59.5595 121.657 58.901 122.412 58.4396 123.266C57.9782 124.121 57.6155 124.942 57.3515 125.731C57.0873 126.651 56.8888 127.604 56.756 128.59C56.6895 129.182 56.655 130.399 56.6527 132.24C56.7161 134.081 56.746 136.317 56.7427 138.947C56.805 141.577 56.8013 144.503 56.7313 147.725C56.7272 150.947 56.6572 154.235 56.5214 157.588C56.3856 160.876 56.1841 164.163 55.9169 167.451C55.6497 170.672 55.2513 173.664 54.7217 176.425C54.2579 179.12 53.6302 181.486 52.8385 183.524C52.1127 185.496 51.2232 186.875 50.1701 187.663C47.998 189.304 45.6291 190.649 43.0633 191.698C40.4976 192.681 37.9652 193.335 35.4661 193.661C32.9669 193.986 30.5998 193.983 28.3645 193.652C26.1949 193.386 24.3546 192.726 22.8436 191.672C21.8582 190.947 20.939 189.927 20.0858 188.611C19.2327 187.294 18.4455 185.847 17.7242 184.268C17.0688 182.623 16.4463 180.945 15.8567 179.235C15.333 177.459 14.8748 175.847 14.4821 174.4C14.0238 172.887 13.6638 171.572 13.4022 170.453C13.075 169.269 12.8459 168.48 12.7149 168.085C12.4526 167.493 12.0259 166.901 11.4349 166.308C10.8439 165.716 10.2199 165.189 9.56292 164.728C8.90596 164.267 8.34747 163.937 7.88744 163.739C7.36174 163.476 7.06592 163.41 7 163.541C6.99983 163.672 7.52583 163.706 8.57799 163.642C9.56449 163.511 10.7811 163.381 12.2279 163.252C13.6747 163.122 15.1872 163.025 16.7654 162.962C18.3437 162.832 19.6588 162.801 20.7108 162.868C21.5656 162.869 22.6834 162.904 24.0642 162.971C25.2477 163.038 26.76 163.106 28.6011 163.174C30.4422 163.177 32.7107 163.245 35.4065 163.38C33.6961 163.904 32.3145 164.494 31.2616 165.15C30.2745 165.741 29.5176 166.299 28.9909 166.824C28.3325 167.481 27.8713 168.138 27.6075 168.795C27.4095 169.387 27.2435 170.603 27.1096 172.444C27.0416 174.219 27.1707 176.06 27.497 177.968C27.8233 179.875 28.4458 181.618 29.3643 183.198C30.2828 184.777 31.7283 185.667 33.7007 185.866C35.8046 186.066 37.5147 185.707 38.831 184.788C40.2131 183.803 41.2998 182.49 42.091 180.847C42.8822 179.204 43.4763 177.364 43.8735 175.326C44.2706 173.288 44.602 171.283 44.8676 169.31C45.0665 167.996 45.1347 166.155 45.072 163.787C45.0093 161.42 44.8482 158.855 44.5887 156.093C44.3292 153.331 44.0042 150.47 43.6134 147.511C43.2885 144.552 42.9632 141.822 42.6377 139.323C42.3121 136.824 41.9861 134.687 41.6596 132.911C41.3989 131.135 41.2359 130.017 41.1708 129.557C40.9088 128.701 40.5483 127.813 40.0892 126.892C39.6956 126.168 39.1378 125.346 38.4157 124.424C37.7593 123.503 36.8727 122.647 35.7559 121.856Z" fill="white"/>
<path d="M59.7295 19.825C66.721 20.4167 72.3128 21.9388 76.5049 24.3915C80.8138 26.7278 84.1318 29.2376 86.4591 31.921C89.2519 35.071 91.2285 38.5697 92.3889 42.4169C93.5477 47.546 93.7747 52.266 93.0699 56.577C92.3653 60.7714 91.3115 64.6157 89.9085 68.11C88.6221 71.6044 87.3362 74.7493 86.0507 77.5445C84.8817 80.3399 84.4122 82.9613 84.6421 85.4089C84.8729 87.1572 85.6281 88.9063 86.9078 90.656C87.9547 92.1723 89.5259 93.7476 91.6214 95.3818C93.8335 97.0161 96.8034 98.4184 100.531 99.5886L99.8102 116.369C95.3823 116.014 91.8859 116.242 89.321 117.055C86.8727 117.867 85.0069 118.855 83.7234 120.019C82.3234 121.299 81.4473 122.871 81.0953 124.735C80.8591 127.182 81.6129 130.038 83.3567 133.304C85.2171 136.569 87.1937 140.068 89.2865 143.8C91.4959 147.532 93.4137 151.438 95.04 155.519C96.6663 159.6 97.1853 163.738 96.5972 167.932C95.8937 171.311 94.0832 174.513 91.1659 177.539C88.7152 180.217 85.0407 183.009 80.1424 185.916C75.2441 188.823 68.5399 191.436 60.0297 193.756L57.9603 171.903C63.4367 172.493 67.6322 172.382 70.5466 171.57C73.5775 170.874 75.7928 170.003 77.1926 168.956C78.8257 167.676 79.8183 166.163 80.1701 164.415C80.2898 161.968 79.6521 159.461 78.257 156.896C76.9784 154.33 75.5253 151.532 73.8977 148.5C72.3866 145.468 71.0506 142.203 69.8898 138.705C68.7291 135.091 68.3846 131.07 68.8565 126.642C69.2103 123.38 70.0301 120.234 71.3159 117.206C72.3681 114.644 73.8863 112.14 75.8705 109.695C80.5 105 96.5023 104.277 100 103C95.5712 103.344 79.0988 105.589 74.132 102.351C71.8032 100.833 70.1157 99.0832 69.0694 97.1007C67.7903 94.8849 67.1528 92.262 67.1567 89.2321C67.2783 85.27 67.9238 81.7747 69.093 78.7463C70.2623 75.7178 71.5479 72.8643 72.9498 70.1858C74.3518 67.3907 75.579 64.6537 76.6313 61.9747C77.8001 59.2959 78.3865 56.3832 78.3906 53.2367C78.1605 50.9057 77.3475 48.7487 75.9517 46.7658C74.6719 45.1327 72.751 43.5569 70.1892 42.0387C67.7439 40.5205 64.1325 39.5836 59.3549 39.2278L59.7295 19.825Z" fill="white"/>
<path d="M51.7969 94.7578C53.0078 94.3542 53.9766 93.668 54.7031 92.6992C55.4297 91.6498 55.8333 90.5195 55.9141 89.3086C55.9141 88.0977 55.5911 86.9271 54.9453 85.7969C54.2187 84.586 53.1289 83.5768 51.6758 82.7695C49.3346 81.4779 47.276 81.155 45.5 81.8008C43.724 82.4466 42.4727 83.4154 41.7461 84.707C41.3424 85.3529 41.0599 86.2409 40.8984 87.3711C40.6562 88.5013 40.5755 89.7123 40.6562 91.0039C40.6562 92.2149 40.7773 93.4258 41.0195 94.6367C41.2617 95.8477 41.625 96.8568 42.1094 97.6641C42.513 98.2292 42.9974 98.8347 43.5625 99.4805C44.0469 100.046 44.6523 100.611 45.3789 101.176C46.0247 101.822 46.7917 102.346 47.6797 102.75L51.918 102.387C51.3529 101.741 50.8685 101.176 50.4648 100.691C49.9805 100.207 49.5768 99.763 49.2539 99.3594C48.931 98.9557 48.6081 98.5925 48.2852 98.2695C47.8008 97.7044 47.3971 97.1393 47.0742 96.5742C46.7513 96.0899 46.4687 95.5651 46.2266 95C45.9844 94.4349 45.944 93.8698 46.1055 93.3047C46.6706 93.9505 47.276 94.3945 47.9219 94.6367C48.5677 94.8789 49.1732 95 49.7383 95C50.4648 95 51.151 94.9193 51.7969 94.7578ZM39.8086 53.707C39.2435 54.6758 38.9206 55.7253 38.8398 56.8555C38.6784 57.905 38.7591 58.9544 39.082 60.0039C39.4049 61.0534 39.97 62.0625 40.7773 63.0313C41.5039 64 42.4727 64.7669 43.6836 65.332C46.2669 66.543 48.5677 66.8659 50.5859 66.3008C52.6042 65.7357 54.138 64.6862 55.1875 63.1524C55.7526 62.3451 56.0755 61.457 56.1562 60.4883C56.1562 59.4388 55.9544 58.4297 55.5508 57.4609C55.0664 56.4115 54.3802 55.4427 53.4922 54.5547C52.6042 53.6667 51.474 52.9401 50.1016 52.375C47.4375 51.2448 45.2578 50.8815 43.5625 51.2852C41.7865 51.6081 40.5352 52.4154 39.8086 53.707Z" fill="white"/>
</g>
<defs>
<clipPath id="clip0_107_101">
<rect width="111" height="217" fill="white"/>
</clipPath>
</defs>
</svg>
