<svg width="27" height="29" viewBox="0 0 27 29" fill="none" xmlns="http://www.w3.org/2000/svg">
<path d="M11.7199 16.3411C11.6798 16.4544 11.627 16.5522 11.5617 16.6339C11.497 16.717 11.4179 16.7813 11.3244 16.8277C11.2309 16.874 11.1165 16.8965 10.9829 16.8965C10.7953 16.8965 10.6401 16.8528 10.5155 16.7659C10.3908 16.6777 10.2913 16.5625 10.217 16.4177C10.1427 16.2742 10.0888 16.1107 10.0552 15.9311C10.0211 15.7515 10.0049 15.5681 10.0049 15.3827C10.0049 15.1967 10.0211 15.0146 10.0552 14.8337C10.0888 14.6529 10.1427 14.4907 10.217 14.3471C10.2913 14.2023 10.3908 14.0871 10.5155 13.9989C10.6401 13.9107 10.7959 13.8683 10.9829 13.8683C11.1453 13.8683 11.2789 13.9011 11.382 13.9674C11.485 14.035 11.5677 14.1122 11.63 14.1997C11.6924 14.2879 11.7355 14.3754 11.7595 14.4662C11.7834 14.5557 11.8002 14.6271 11.8098 14.6786H13.3487C13.2815 13.9835 13.055 13.4467 12.6685 13.0682C12.2826 12.6898 11.7349 12.4973 11.026 12.4922C10.6281 12.4922 10.2692 12.5611 9.95097 12.7007C9.63217 12.8391 9.35892 13.0354 9.1312 13.2877C8.90349 13.54 8.72851 13.8432 8.60627 14.1991C8.48402 14.5537 8.4223 14.9489 8.4223 15.3808C8.4223 15.7869 8.48043 16.168 8.59488 16.52C8.70994 16.8734 8.87952 17.1772 9.10244 17.4353C9.32536 17.6934 9.59681 17.8967 9.91801 18.0461C10.2392 18.1941 10.6083 18.27 11.026 18.27C11.3999 18.27 11.7331 18.2025 12.0255 18.0692C12.3174 17.9347 12.5631 17.759 12.762 17.5402C12.961 17.3213 13.112 17.0748 13.215 16.8026C13.3181 16.531 13.3702 16.2542 13.3702 15.9768H11.8164C11.793 16.1055 11.7613 16.2285 11.7199 16.3411Z" fill="white"/>
<path d="M15.9518 15.9697H15.9374L15.0961 12.6254H13.4997L15.0314 18.14H16.8003L18.4045 12.6254H16.7787L15.9518 15.9697Z" fill="white"/>
<path d="M20.0332 0H3.10345V29H23.8965V4.02333L20.0332 0ZM22.0988 27.0685H4.90118V1.93089H19.1068V4.99456H22.0982L22.0988 27.0685Z" fill="white"/>
</svg>
