<svg width="30" height="30" viewBox="0 0 30 30" fill="none" xmlns="http://www.w3.org/2000/svg">
<g clip-path="url(#clip0_1_31)">
<path d="M25.5609 25.5612H21.1159V18.6C21.1159 16.94 21.0862 14.8031 18.804 14.8031C16.4888 14.8031 16.1346 16.6118 16.1346 18.4791V25.5608H11.6897V11.2456H15.9568V13.202H16.0166C16.4436 12.4718 17.0607 11.8711 17.8022 11.4638C18.5436 11.0566 19.3816 10.8581 20.2269 10.8895C24.7322 10.8895 25.5628 13.8529 25.5628 17.7082L25.5609 25.5612ZM6.67404 9.28895C5.24939 9.28918 4.09428 8.13442 4.09404 6.70977C4.09381 5.28512 5.24846 4.13 6.67311 4.12977C8.09775 4.12942 9.25287 5.28418 9.25311 6.70883C9.25323 7.39297 8.98158 8.04915 8.49792 8.53301C8.01425 9.01688 7.35819 9.28879 6.67404 9.28895ZM8.89662 25.5614H4.44689V11.2456H8.8965V25.5612L8.89662 25.5614ZM27.7769 0.00160359H2.2133C1.0051 -0.0119902 0.0142773 0.955861 -0.000488281 2.16406V27.8343C0.0138086 29.0431 1.00451 30.0119 2.21318 29.9993H27.7769C28.9882 30.0143 29.9828 29.0455 29.9995 27.8343V2.16207C29.9823 0.951525 28.9876 -0.0162089 27.7769 -0.000388597" fill="#37527B"/>
</g>
<defs>
<clipPath id="clip0_1_31">
<rect width="30" height="30" fill="white"/>
</clipPath>
</defs>
</svg>
