<svg width="30" height="30" viewBox="0 0 30 30" fill="none" xmlns="http://www.w3.org/2000/svg">
<path d="M2.04551 29.9997H6.8182V14.5493L0 7.73297V27.2733C0 28.7796 0.915351 29.9999 2.04551 29.9999V29.9997Z" fill="#37527B"/>
<path d="M23.1818 29.9997H27.9546C29.0847 29.9997 30 28.7796 30 27.2732V7.73297L23.1818 14.5493V29.9997Z" fill="#37527B"/>
<path d="M23.1818 2.73441V14.5494L30 7.73306V4.09771C30 0.728154 27.1143 -1.19633 25.0909 0.825862L23.1818 2.73441Z" fill="#37527B"/>
<path fill-rule="evenodd" clip-rule="evenodd" d="M6.81818 14.549V2.73401L15 10.9137L23.1818 2.73401V14.549L15 22.7286L6.81818 14.549Z" fill="#37527B"/>
<path d="M0 4.09717V7.73252L6.8182 14.5489V2.73386L4.9091 0.825316C2.88574 -1.19687 0 0.727608 0 4.09701V4.09717Z" fill="#37527B"/>
</svg>
